<?xml version="1.0" encoding="UTF-8" standalone="no"?>
<svg
   xmlns:dc="http://purl.org/dc/elements/1.1/"
   xmlns:cc="http://creativecommons.org/ns#"
   xmlns:rdf="http://www.w3.org/1999/02/22-rdf-syntax-ns#"
   xmlns:svg="http://www.w3.org/2000/svg"
   xmlns="http://www.w3.org/2000/svg"
   xmlns:sodipodi="http://sodipodi.sourceforge.net/DTD/sodipodi-0.dtd"
   xmlns:inkscape="http://www.inkscape.org/namespaces/inkscape"
   width="757.56158mm"
   height="756.14526mm"
   viewBox="0 0 757.56158 756.14526"
   version="1.1"
   id="svg414"
   inkscape:version="1.0 (4035a4fb49, 2020-05-01)"
   sodipodi:docname="CompleteTTLogo.svg">
  <defs
     id="defs408" />
  <sodipodi:namedview
     id="base"
     pagecolor="#ffffff"
     bordercolor="#666666"
     borderopacity="1.0"
     inkscape:pageopacity="0.0"
     inkscape:pageshadow="2"
     inkscape:zoom="0.14935172"
     inkscape:cx="1502.2115"
     inkscape:cy="1389.6627"
     inkscape:document-units="px"
     inkscape:current-layer="layer1"
     inkscape:document-rotation="0"
     showgrid="false"
     inkscape:pagecheckerboard="true"
     inkscape:window-width="1362"
     inkscape:window-height="724"
     inkscape:window-x="0"
     inkscape:window-y="42"
     inkscape:window-maximized="0" />
  <metadata
     id="metadata411">
    <rdf:RDF>
      <cc:Work
         rdf:about="">
        <dc:format>image/svg+xml</dc:format>
        <dc:type
           rdf:resource="http://purl.org/dc/dcmitype/StillImage" />
        <dc:title />
      </cc:Work>
    </rdf:RDF>
  </metadata>
  <g
     inkscape:label="Layer 1"
     inkscape:groupmode="layer"
     id="layer1"
     transform="translate(293.35819,278.28692)">
    <path
       d="m 36.696824,-278.28692 c -0.36169,0 -9.71974,8.79896 -20.79625,19.55232 l -20.13876,19.54969 22.3258,22.59242 c 15.25852,15.4409 22.32316,23.44518 22.32316,25.28684 0,3.49327 -3.90048,8.00878 -27.71404,32.07763 -12.33301995,12.46505 -20.97564,20.23293 -23.10527,20.7672 -2.93317,0.73615 -4.45982,-0.0813 -11.08445,-5.94175 -4.2254,-3.73774 -9.4488,-8.64923 -11.60913,-10.91406 -5.71103,-5.98768 -12.72778,-13.04801 -20.52187,-20.64888 l -6.84795,-6.67763 -19.76173,19.88407 c -10.86882,10.9355 -19.76146,20.22689 -19.76146,20.64885 0,0.42196 9.40488,10.19379 20.89679,21.71444 11.49217,11.52064 21.24075,22.037755 21.66435,23.372235 0.42359,1.33435 0.46222,3.6517 0.0868,5.148 -0.73078,2.91145 -40.35002,44.06267 -46.025074,47.80483 -6.25184,4.12253 -8.65028,3.10259 -20.00435,-8.5204 -14.59732,-14.94271 -32.97714,-32.33412 -34.14633,-32.3107 -1.73805,0.0332 -37.37398,36.76253 -38.35373,39.52988 -0.23733,0.66988 9.0461,10.67269 20.62982,22.22916 27.58969,27.5251596 27.32934,24.4842996 4.12777,47.86529 -9.31413,9.38623 -17.54611,17.79143 -18.29144,18.67895 -3.20808,3.82185 -10.59312,9.77419 -13.49507,10.87737 -2.28203,0.8678 -4.05818,0.71503 -6.46377,-0.55293 -3.04059,-1.60245 -15.48421,-13.79329 -34.5022,-33.80465 -9.28581,-9.77051 -10.61058,-9.62091 -22.09482,2.50373 -4.56645,4.82084 -11.04345,11.32109 -14.39254,14.44511 -8.82174,8.22963 -13.00216,12.82917 -12.97755,14.26993 0.0132,0.69585 9.711,10.93041 21.55322,22.74382 19.31697,19.27006 21.53206,21.90314 21.53206,25.6 0,3.702895 -2.18467,6.282425 -21.55322,25.464585 -11.85442,11.74035 -21.55378,21.85519 -21.55378,22.47717 0,1.81033 38.3077,39.84305 40.13148,39.84305 0.19155,0 10.05178,-9.69931 21.90935,-21.55373 19.38919,-19.38403 21.97682,-21.55372 25.70797,-21.55372 3.7346,0 6.44499,2.28057 27.16318,22.85288 12.65873,12.56967 23.61962,23.98382 24.35807,25.36383 2.65113,4.95361 -0.13123,8.85444 -21.12989,29.61161 -11.4636,11.33168 -20.84149,21.521 -20.84149,22.6436 0,1.70209 21.16719,23.56448 35.23403,36.39053 l 3.82694,3.49022 22.27527,-22.14282 c 18.7399,-18.62902 22.84941,-22.14285 25.89503,-22.14285 3.05673,0 7.27049,3.64419 27.071644,23.41822 24.33876,24.30531 26.6491,27.59409 23.52172,33.47239 -0.83211,1.56387 -7.1038,8.55694 -13.93772,15.54011 -16.07608,16.42759 -16.41713,16.75951 -22.58563,21.96714 -2.87893,2.43049 -5.23451,5.09246 -5.23451,5.91749 0,0.82499 3.89625,5.33431 8.66007,10.019 4.76383,4.68469 13.44295,13.36723 19.2876,19.29445 5.84491,5.92719 11.16833,10.77711 11.83031,10.77711 1.49331,0 42.74106,-41.73342 42.74106,-43.2444 0,-2.51743 7.48348,-0.94104 11.3493,2.39107 2.22488,1.91788 5.02709,3.84691 6.22803005,4.2845 1.20067995,0.43762 2.54528995,1.77734 2.98793995,2.97813 0.44265,1.20081 8.15896,9.49962 17.14606,18.44071 19.73871,19.63722 20.88197,21.19847 19.14842,26.17206 -0.72548,2.08073 -10.45157,12.85875 -22.41021,24.83466 l -21.12724,21.15892 18.89496,18.9239 c 10.39177,10.40802 19.85036,19.22724 21.01929,19.59829 1.5449,0.49025 7.84754,-5.05092 23.05976,-20.27422 16.61504,-16.6274 21.79637,-21.10987 25.12086,-21.73354 4.09999,-0.76917 4.65667,-0.31496 26.208306,21.41884 12.10892,12.21153 22.18954,22.23484 22.40015,22.27511 0.21034,0.0403 6.49975,-6.03639 13.97582,-13.5046 9.25777,-9.248 13.36067,-14.18486 12.86484,-15.47709 -0.5424,-1.4133 -0.14632,-1.71193 1.55654,-1.17149 3.45334,1.09603 11.75173,-8.40127 10.07639,-11.53211 -0.67204,-1.25582 -9.50436,-10.61315 -19.62891,-20.79358 -10.12454,-10.18042 -19.34527,-19.94095 -20.49012,-21.68808 -1.98041,-3.0226 -1.95422,-3.42167 0.55562,-8.23671 1.45045,-2.78316 12.53887,-14.9823 24.63959,-27.10995 16.55524,-16.59194 22.74729,-22.04932 25.01768,-22.04932 2.26536,0 8.56906,5.52553 25.29152,22.1697 12.25047,12.19311 22.74358,22.1692 23.31905,22.1692 0.5752,0 7.95761,-6.90655 16.40364,-15.34739 8.44603,-8.44085 16.87803,-16.8257 18.74096,-18.6309 1.86293,-1.80525 3.38746,-4.18862 3.38746,-5.29683 0,-1.10821 -9.42207,-11.6995 -20.9378,-23.5381 -18.49887,-19.01727 -20.9378,-21.99735 -20.9378,-25.58034 0,-3.62111 2.55508,-6.62334 23.85325,-28.03395 20.39223,-20.49958 24.38823,-23.9784 27.54047,-23.9784 3.12632,0 7.01966,3.29661 25.57833,21.66692 17.87076,17.6894 22.29803,21.47734 24.11995,20.62975 2.43681,-1.13372 15.21857,-13.1735 19.93212,-18.7751 1.62163,-1.92723 4.17221,-4.15766 5.66738,-4.95784 1.49516,-0.80016 3.03662,-3.04599 3.42556,-4.99142 0.40666,-2.03362 1.329,-3.29827 2.16984,-2.97553 2.36723,0.90829 7.31256,-5.13104 6.04997,-7.38767 -0.59161,-1.05688 -10.34362,-11.32494 -21.67176,-22.81875 -13.59879,-13.79763 -20.59808,-21.78701 -20.59808,-23.51175 0,-4.31133 2.29262,-7.38971 15.2916,-20.54035 6.83154,-6.91115 12.97384,-13.17532 13.65144,-13.9211 4.41933,-4.86579 18.85209,-17.40231 20.71396,-17.99323 1.23772,-0.39291 3.60072,-0.37592 5.25119,0.0382 3.15939,0.79293 28.69512,25.37942 31.17797,30.01886 0.7964,1.48775 2.23705,2.70629 3.20199,2.70629 0.96467,0 3.80523,2.21673 6.31216,4.92631 2.50693,2.70957 5.05672,4.92633 5.66473,4.92633 0.60828,0 3.42688,-2.57969 6.26639,-5.73196 2.83925,-3.15228 5.86846,-6.3395 6.73074,-7.08227 4.31376,-3.71557 24.21519,-24.16257 25.15923,-25.84958 0.84481,-1.5096 -3.03345,-6.01969 -17.51198,-20.35794 -19.34078,-19.15303 -25.84238,-26.46288 -25.84238,-29.063335 0,-2.8299 9.16093,-12.68238 17.85831,-19.20605 4.74187,-3.55669 11.39243,-9.07658 14.77936,-12.26539 3.38693,-3.18879 7.70943,-7.10703 9.60306,-8.70593 l 3.44222,-2.90576 -7.13713,-7.60627 c -3.92562,-4.18346 -11.01884,-11.90758 -15.7607,-17.16328 -12.58888,-13.95336 -17.6784,-18.95338 -19.2876,-18.95338 -0.78607,0 -9.79223,8.38523 -20.01387,18.63349 -20.83832,20.89248 -25.05499,24.47396 -28.82768,24.47396 -1.67852,0 -6.29206,-3.80095 -12.81695,-10.55801 -5.60625,-5.80615 -15.8025,-16.19816 -22.65733,-23.09318 C 324.76166,8.8169046 322.45343,5.7086246 322.45343,1.2949546 c 0,-1.76317996 7.06385,-9.6057 21.56302,-23.9421996 21.02061,-20.78484 21.52041,-21.39677 19.94402,-24.43519 -1.85182,-3.56939 -36.14552,-37.83905 -37.86531,-37.83905 -0.62415,0 -10.58466,9.41668 -22.13769,20.92587 -11.55303,11.50906 -22.37502,21.26811 -24.04824,21.68808 -4.43759,1.11377 -7.23662,-1.12241 -31.6447,-25.29149 -20.00858,-19.81282 -21.84744,-21.99786 -21.8612,-25.95346 -0.0132,-3.90255 1.71503,-6.10055 17.93082,-22.785175 9.87081,-10.15638 18.73091,-19.94649 19.68923,-21.75783 0.95832,-1.81136 2.69531,-3.47768 3.8608,-3.7021 1.50945,-0.29078 -3.65337,-6.21845 -17.95251,-20.61064 l -20.07156,-20.20133 -3.27633,3.22098 c -1.80181,1.77106 -11.98695,11.83245 -22.63378,22.36142 -15.54295,15.37107 -20.02473,19.14612 -22.74438,19.14612 -2.76437,0 -7.86871,-4.503 -27.75215,-24.47655 -20.82323,-20.91748 -24.36547,-25.01236 -24.36547,-28.17347 0,-3.14409 3.23135,-6.94798 21.55322,-25.36846 11.85439,-11.91821 21.56089,-22.37973 21.56089,-23.24716 0.005,-1.52181 -32.83981,-34.21343 -34.37519,-34.21343 -0.41593,0 -1.45389,-1.11948 -2.3069,-2.4851 -1.42135,-2.27589 -1.83066,-2.33439 -4.91437,-0.71466 -1.85024,0.97186 -10.57037,9.30211 -19.3765,18.51308 -18.812136,19.67674 -23.601626,23.42274 -28.563086,22.333 -2.30638,-0.50657 -10.48094,-7.76624 -24.39194,-21.66639 -11.50726,-11.49847 -21.21588,-20.90674 -21.5773,-20.90674 z m 49.72658,121.22415 c 1.34673,-1.1e-4 3.43959,0.53101 4.64979,1.17871 1.21021,0.64773 14.742056,13.67187 30.071476,28.94296 15.3297,15.27106 28.43663,27.764715 29.12587,27.764715 0.68924,-1.3e-4 1.25386,0.63186 1.25386,1.40248 0,0.77076 6.23464,7.67302 13.85543,15.33964 7.62053,7.66665 14.56558,14.65808 15.43368,15.53499 48.89447,49.39577 64.33635,64.8489996 68.39426,68.4469596 10.41294,9.2327704 98.29086,99.9157454 99.11424,102.2779954 1.72746,4.95546 0.27517,7.36452 -10.92068,18.10898 -29.2862,28.10555 -59.01954,57.97116 -59.01954,59.28164 0,0.8164 -1.13798,1.84653 -2.5281,2.28772 -1.39012,0.4412 -4.30001,2.80467 -6.46641,5.25344 -2.16615,2.4488 -6.57702,6.97439 -9.80229,10.05726 -19.84798,18.97097 -46.49787,44.97089 -50.17426,48.94998 -2.37093,2.56604 -6.45451,6.61234 -9.07388,8.98964 -12.25921,11.12565 -62.36044,61.49957 -62.36044,62.70004 0,0.74493 -0.57838,1.35445 -1.28482,1.35445 -0.70644,0 -5.55572,4.3697 -10.77648,9.70844 -5.22102,5.33873 -10.1084,9.91139 -10.86088,10.16113 -1.73778,0.57695 -11.56361,11.94356 -11.56361,13.37697 0,0.59055 -1.24725,1.46978 -2.77098,1.95336 -1.523736,0.48361 -4.433626,2.67333 -6.466156,4.86638 -3.93409,4.24473 -9.50621,6.03297 -13.54799,4.34909 -3.2004,-1.33332 -252.748254,-250.78288 -255.740694,-255.63971 -3.4716,-5.6353 -2.79453,-8.06405 4.20449,-15.041955 3.54225,-3.53144 7.89438,-7.89638 9.67079,-9.70121 5.38718,-5.47309 8.01873,-8.07722 11.08445,-10.97142 1.61079,-1.52032 6.25502,-6.2388 10.31928,-10.48361 4.06453,-4.24493 10.48491,-10.41422 14.26739,-13.71129 3.78275,-3.29706 7.61604,-7.37696 8.52038,-9.06664 0.90435,-1.68979 2.14551,-3.07425 2.75908,-3.07425 0.61356,0 15.200314,-14.27138 32.414634,-31.7143304 17.21406,-17.4429196 31.99871,-32.3658196 32.85437,-33.1623196 11.53742,-10.74042 33.21182,-31.6076 47.10748,-45.35382 64.24982,-63.557155 86.01789,-84.366415 88.25626,-84.366415 z m -2.41273,46.70152 c -1.88833,0 -20.25412,17.555715 -74.45799,71.175515 -11.72315,11.59711 -30.00824,29.2015896 -39.74173,38.26276964 -0.72179,0.67199 -13.19478,13.26177036 -27.71723,27.97763036 -14.52271,14.71572 -26.82848,26.75548 -27.34627,26.75548 -0.51753,0 -1.56501,1.16644 -2.3278,2.59207 -0.76306,1.42537 -3.99812,4.86765 -7.18926,7.64916 -3.19114,2.78148 -8.607694,7.98759 -12.036694,11.5688 -3.42874,3.58108 -7.34616,7.56026 -8.70479,8.84288 -2.58657,2.44157 -4.80643,4.63941 -9.35144,9.25679 -1.4986,1.52278 -5.16969,5.20599 -8.15816,8.185035 -5.90444,5.88719 -6.47753,7.93605 -3.54859,12.69016 2.52465,4.0975 213.054934,214.5452 215.754744,215.67005 3.40995,1.42063 8.1116,-0.0891 11.43053,-3.67006 1.71477,-1.85018 4.16957,-3.69771 5.45492,-4.1057 1.28534,-0.40799 2.33732,-1.14919 2.33732,-1.64743 0,-1.20927 8.289926,-10.79992 9.755986,-11.28665 0.63473,-0.21071 4.75773,-4.06807 9.16225,-8.5721 4.40452,-4.504 8.49604,-8.18914 9.09188,-8.18914 0.59611,0 1.08373,-0.51412 1.08373,-1.14258 0,-1.01277 42.26825,-43.51192 52.61055,-52.89807 2.21006,-2.00559 5.65467,-5.41816 7.65492,-7.58298 3.10145,-3.35698 25.58521,-25.29134 42.32963,-41.29619 2.72124,-2.60083 6.44234,-6.41935 8.26982,-8.48527 1.82774,-2.06595 4.28307,-4.06069 5.45544,-4.4328 1.1729,-0.37227 2.13228,-1.24027 2.13228,-1.92911 0,-1.10553 25.08567,-26.30278 49.79273,-50.014 9.44562,-9.06447 10.67144,-11.09649 9.21411,-15.27709 -0.69479,-1.9929 -74.83501,-78.498065 -83.61971,-86.287235 -3.4237,-3.03522 -16.4502,-16.0720404 -57.70007,-57.74479 -0.7321,-0.73983 -6.59156,-6.63712 -13.02067,-13.10515 -6.42938,-6.46788 -11.68929,-12.29178 -11.68929,-12.94183 0,-0.65019 -0.47625,-1.18237 -1.05781,-1.18237 -0.58155,0 -11.63822,-10.54095 -24.57106,-23.42441 -12.93283,-12.88344 -24.349596,-23.871295 -25.370626,-24.417635 -1.02102,-0.5466 -2.7858,-0.99375 -3.92165,-0.99375 z m 2.79823,23.183085 19.894286,19.89439 -4.97391,4.97335 -7.460446,-7.46001 -14.92038,14.92055 -4.97391,-4.97335 14.92092,-14.92104 -7.46046,-7.46054 z m 19.894286,24.86774 h 4.97337 l 12.43383,12.43439 -4.97337,4.97334 -9.94701,-9.94719 -14.921176,14.92104 -4.97337,-4.97385 z m 19.89402,14.92105 17.40773,17.40773 v 4.97334 l -17.40773,17.4077096 -16.7857,-16.7860396 v -4.97335 l 4.97337,-4.97385 1.93279,0.48318 5.68325,-7.78816 -0.77708,-0.77722 z m 29.84156,14.92054 4.9739,4.97385 -22.3811,22.3810696 10.56878,10.56887 -4.9739,4.9738404 -13.05534,-13.0560504 v -4.97334 z m 9.94727,24.8682396 17.40773,17.40773 v 4.9733504 l -17.40773,17.40773 -17.4072,-17.40773 V 9.8071346 l 4.97311,-4.97385 20.51606,5.5955104 -13.05534,-13.0560504 z m 30.4636,15.54221 4.97337,4.9738704 -7.46045,7.46051 9.94727,9.9472 v 9.94719 l -14.92065,14.92054 -4.9739,-4.97334 12.43436,-12.43439 v -4.97332 l -7.46046,-7.46053 -14.92117,14.92104 -4.97311,-4.97385 z M 71.596954,15.662075 c 0.254,-0.003 0.43656,0.0651 0.40931,0.18293 -0.0159,0.0871 0.14499,0.13036 0.37703,0.0868 0.43524,-0.058 0.75433,0.21754 0.44979,0.40616 -0.11615,0.0725 -0.10186,0.13057 0.0577,0.18862 0.1307,0.058 0.23257,0.18878 0.23257,0.30488 0,0.27564 0.28998,0.17394 1.05886,-0.31935 0.29025,-0.20312 0.58023,-0.31893 0.62389,-0.27543 0.0579,0.0435 0.0434,0.31911 0,0.59478 -0.087,0.46424 -0.7837,1.24748 -1.11734,1.24748 -0.0725,0 -0.13017,0.18849 -0.13017,0.43511 0,0.36272 0.1016,0.4789 0.58023,0.72554 0.43524,0.21762 0.60907,0.42085 0.68157,0.74001 0.0437,0.23215 0.14525,0.46445 0.2032,0.50798 0.15954,0.087 -0.56542,1.17496 -1.10226,1.6247 -0.2032,0.18859 -0.59505,0.43529 -0.87074,0.56586 -0.2757,0.13057 -0.53684,0.33354 -0.58023,0.43511 -0.15981,0.44974 0.4355,0.98676 1.23348,1.08831 0.20294,0.029 0.34767,0.13047 0.31883,0.23204 -0.0437,0.21759 0.36301,0.23212 0.4355,0 0.1016,-0.30467 0.55086,0 0.55086,0.39169 0,0.44976 0.40614,0.65307 0.60934,0.31938 0.18865,-0.34819 0.59505,-0.30501 1.52347,0.13023 0.76888,0.37721 0.8419,0.37713 1.79943,0.21754 0.65273,-0.13055 1.07315,-0.13042 1.24725,-0.0434 0.14525,0.0871 0.59478,0.18897 0.98663,0.24699 0.40613,0.058 0.95726,0.23167 1.23296,0.36227 0.29025,0.14507 0.82735,0.30475 1.20465,0.36277 0.72548,0.11607 1.26179,0.58042 1.26179,1.11723 0,0.42074 0.3773,1.05918 0.79799,1.33482 0.2323,0.15957 0.89958,0.30462 1.69756,0.39169 1.66847,0.1741 3.68538,0.84138 4.74451,1.58131 0.44979,0.31917 1.01521,0.60963 1.2618,0.66765 0.52229,0.10155 1.20438,-0.18904 1.85737,-0.79838 0.62389,-0.58034 0.71094,-0.9429 0.3773,-1.61025 -0.3773,-0.73994 -0.36301,-1.2913 0.0434,-1.90066 0.39159,-0.59484 1.27662,-1.10231 2.55323,-1.4795 1.56686,-0.46427 2.205036,-0.46466 3.568696,-0.0439 1.10278,0.34819 1.21894,0.42074 1.26259,0.76896 0.0434,0.34819 0.13044,0.42074 0.76888,0.56583 0.40614,0.087 0.87022,0.23233 1.04431,0.31938 0.1741,0.10155 0.76915,0.17415 1.32027,0.17415 1.05913,0 1.33483,0.14497 1.53803,0.82682 0.11615,0.37722 0.21748,0.39177 1.01547,0.17415 0.40613,-0.11607 0.73977,-0.11607 1.17501,0 0.34819,0.0871 1.10278,0.21783 1.68328,0.30488 0.58023,0.0871 1.20385,0.24622 1.3925,0.36227 0.1741,0.11607 0.52255,0.21807 0.75459,0.21807 0.23204,0 0.4789,0.0576 0.52229,0.14467 0.0437,0.0725 0.33364,0.14523 0.62389,0.14523 0.28998,0 0.82682,0.13081 1.17501,0.29041 0.3482,0.1596 0.7546,0.2899 0.91414,0.2899 0.3048,0 0.98637,-0.31914 1.63936,-0.7834 0.23204,-0.15957 0.58023,-0.27551 0.75432,-0.26096 0.2466,0.0435 0.33391,-0.0294 0.33391,-0.23254 0,-0.29017 0.18865,-0.31885 1.74096,-0.31885 1.43642,0 2.13254,0.0724 2.33574,0.23201 0.11615,0.087 0.34845,0.21749 0.52255,0.26099 0.15954,0.058 0.39132,0.18883 0.47837,0.30488 0.2032,0.24667 0.95779,0.29003 1.08849,0.0579 0.0725,-0.0871 0.44927,-0.11592 1.07315,-0.0434 1.05913,0.1016 1.56713,-0.0578 2.10371,-0.65267 0.27569,-0.30467 0.6678,-0.40625 0.6678,-0.18863 0,0.0725 -0.1598,0.27549 -0.34845,0.44958 l -0.34819,0.31938 0.65272,1.6247 c 0.36275,0.89951 0.71094,1.7118 0.79772,1.79885 0.1016,0.13057 0.0585,0.42082 -0.14446,0.94311 -0.65299,1.74096 -0.79851,2.24864 -0.81307,2.74193 -0.0132,0.65286 -0.42042,1.14652 -0.84111,1.03045 -0.17409,-0.0435 -0.75459,-0.49372 -1.29143,-1.01598 -0.75459,-0.69641 -1.00092,-1.02962 -1.00092,-1.31979 0,-0.23212 -0.26114,-0.7257 -0.65272,-1.24799 -0.36275,-0.47876 -0.65273,-0.98666 -0.65273,-1.13173 0,-0.1451 -0.0582,-0.21767 -0.14526,-0.17415 -0.23204,0.1451 -0.17409,0.65334 0.15981,1.19013 0.1741,0.26117 0.26088,0.57999 0.21749,0.69606 -0.0437,0.11605 -0.0159,0.24686 0.0722,0.30491 0.0728,0.0435 0.30507,0.33353 0.49371,0.6382 0.20294,0.30467 0.66702,0.85579 1.04431,1.23298 0.5514,0.52229 0.653,0.68189 0.49345,0.78343 -0.17409,0.11608 -0.14552,0.21797 0.17357,0.63871 0.2032,0.27567 0.50826,0.91384 0.68209,1.42163 0.1741,0.50779 0.71094,1.58126 1.20412,2.37919 0.4789,0.79795 1.08823,1.87187 1.34938,2.39416 0.26114,0.55131 0.74004,1.20414 1.13162,1.56684 0.36274,0.33369 0.66781,0.65256 0.66781,0.68159 0,0.0435 -0.15981,0.0436 -0.36274,-0.0145 -0.33391,-0.087 -0.36301,-0.0581 -0.36301,0.43513 0,0.76893 0.62388,1.9154 1.20412,2.20554 0.24659,0.13057 0.82682,0.58026 1.26206,0.9865 0.65273,0.60933 0.81253,0.85595 0.89958,1.36374 0.058,0.39172 0.26141,0.81254 0.55139,1.13173 0.44979,0.52229 0.50774,0.85572 0.0725,0.493 -0.2757,-0.23212 -0.29025,0.0437 -0.0159,0.31935 0.11589,0.1161 0.15981,0.37703 0.13071,0.65267 -0.0871,0.56582 0.2032,3.36619 0.40613,3.94653 0.0871,0.24662 0.28999,0.47837 0.46408,0.53639 0.1741,0.0581 0.62389,0.37735 1.00092,0.72554 0.3773,0.34819 0.7837,0.6382 0.89985,0.6382 0.13044,0 0.42095,0.42106 0.71093,1.04492 0.7546,1.61039 0.84138,1.84243 1.04432,2.94502 0.21775,1.18968 0.508,1.98755 0.76914,2.14715 0.1016,0.0726 0.27569,0.33372 0.39158,0.58034 0.1741,0.40624 0.18891,0.42103 0.13071,0.0873 -0.087,-0.37722 0.2323,-0.78375 0.3339,-0.46458 0.0291,0.087 0.18812,0.3049 0.34793,0.49352 0.14499,0.17407 0.27569,0.37706 0.27569,0.43511 0,0.18859 0.78343,0.5511 1.43616,0.65267 0.72549,0.11605 1.21894,0.47911 1.69757,1.23352 0.18865,0.30467 0.56568,0.66733 0.81253,0.79788 0.68184,0.34821 1.10252,0.7688 1.20386,1.20406 0.0582,0.26114 0.2323,0.44985 0.508,0.55139 0.24659,0.0871 0.43524,0.26115 0.43524,0.39172 0,0.21762 0.17436,0.30453 0.47889,0.24648 0.18865,-0.029 0.81254,0.75468 0.98663,1.26246 0.21749,0.66736 0.1016,0.85569 -0.76887,1.26193 -1.16073,0.52229 -1.17528,0.58034 -0.23204,0.58034 0.76888,0 0.89931,0.0435 1.17501,0.39169 0.1741,0.20309 0.53684,0.65283 0.81227,0.98653 0.2757,0.34816 0.78343,0.74011 1.14618,0.89968 0.55139,0.24665 0.72548,0.26133 1.32053,0.11626 0.36248,-0.087 1.01521,-0.36316 1.42161,-0.59531 l 0.76888,-0.42063 0.85566,0.23254 0.87074,0.24648 1.00119,-0.60925 c 0.95752,-0.56581 1.03028,-0.59505 1.85711,-0.508 0.62388,0.0726 0.98636,0.0288 1.23296,-0.10179 0.18864,-0.11604 0.76914,-0.20301 1.29143,-0.21756 0.52228,0 1.30572,-0.11592 1.74096,-0.24649 0.43523,-0.13057 0.98636,-0.27585 1.20411,-0.31938 0.23204,-0.0435 0.60907,-0.28972 0.82683,-0.53639 0.39158,-0.42071 0.46434,-0.43532 1.10278,-0.3483 0.39158,0.0435 0.75433,0.14502 0.82682,0.21757 0.0871,0.087 0.0288,0.40611 -0.1307,0.81235 -0.15954,0.43521 -0.20294,0.71091 -0.10134,0.76893 0.2032,0.14507 0,1.69775 -0.27596,2.01695 -0.11615,0.14507 -0.29024,0.75393 -0.39184,1.34874 -0.10134,0.65286 -0.27544,1.20465 -0.43498,1.37874 -0.15954,0.1596 -0.50774,0.75396 -0.78343,1.3198 -0.2757,0.55128 -0.62389,1.11752 -0.76888,1.21906 -0.1307,0.11608 -0.36248,0.49313 -0.50747,0.82683 -0.14526,0.33366 -0.52255,1.03015 -0.85646,1.52342 -0.31908,0.50776 -0.62362,1.05888 -0.65246,1.23298 -0.0437,0.18859 -0.10186,0.4935 -0.14526,0.69662 -0.0437,0.20307 -0.50773,0.97219 -1.01547,1.69757 -0.52228,0.73991 -1.05912,1.5666 -1.18956,1.84227 -0.3482,0.66735 -1.20439,1.61041 -3.45308,3.87365 -1.68302,1.68294 -2.04549,1.97329 -3.33666,2.64068 -0.97208,0.50779 -1.85711,1.13122 -2.71304,1.88566 -1.9296,1.711955 -4.62862,4.642925 -5.25251,5.687505 -0.71093,1.18967 -1.07341,1.59575 -1.43589,1.59575 -0.14526,0 -0.24659,0.0726 -0.21775,0.17415 0.0871,0.24667 -0.88503,1.10244 -1.36367,1.21854 -0.50773,0.10155 -0.84137,0.56578 -0.84137,1.17512 0,0.24664 -0.0582,0.49337 -0.1307,0.55139 -0.0725,0.0436 -0.46461,0.75435 -0.8562,1.58131 -0.47889,0.98655 -0.82682,1.53773 -1.01547,1.59575 -0.15954,0.058 -0.33364,0.27594 -0.39184,0.49353 -0.0434,0.21765 -0.28972,0.87024 -0.52176,1.45055 -0.26115,0.65289 -0.39185,1.20455 -0.33391,1.40767 0.0437,0.18859 0.43498,0.69646 0.87022,1.1317 0.43524,0.43526 0.78343,0.87048 0.78343,0.97205 0,0.10158 -0.13018,0.40595 -0.30427,0.68159 -0.29025,0.46424 -0.29051,0.50808 -0.0585,0.87075 0.23204,0.33369 0.23257,0.46429 0.0728,1.16067 -0.15955,0.63836 -0.15955,0.84143 0,1.17512 0.11615,0.21762 0.2032,0.46435 0.21775,0.55139 0,0.087 0.087,0.26112 0.18865,0.39169 0.13043,0.1596 0.44926,1.47982 0.46381,1.94408 0,0.0146 0.27622,0.20312 0.62442,0.39172 0.79798,0.47876 1.32,1.02968 1.2184,1.30532 -0.0434,0.11605 -0.0291,0.23249 0.0434,0.26149 0.0725,0.029 0.0294,0.33337 -0.0868,0.69609 -0.17409,0.50779 -0.2032,0.95779 -0.1307,2.03139 0.0582,0.75443 0.17409,1.46526 0.24659,1.56684 0.11589,0.13057 0.0873,0.2609 -0.11589,0.47852 -0.14499,0.15957 -0.18891,0.27604 -0.0873,0.24702 0.1307,-0.029 0.18865,0.31917 0.21749,1.36374 0.0159,0.78343 0.0873,1.42161 0.14525,1.42161 0.0728,0 0.1016,0.13036 0.058,0.27543 -0.0437,0.17412 0.0159,0.31924 0.1307,0.36277 0.43524,0.15959 0.0288,2.13291 -0.53684,2.64067 -0.3773,0.33369 -1.34885,1.63931 -1.47955,1.973 -0.0434,0.13057 -0.36274,0.39177 -0.71093,0.56586 -0.3482,0.1741 -0.78344,0.44958 -0.98664,0.63821 -0.2032,0.17409 -0.59504,0.36266 -0.87074,0.42066 -0.75433,0.13057 -2.59662,0.91397 -3.2639,1.36374 -0.31909,0.21759 -1.016,0.914 -1.56739,1.55234 -0.63818,0.75443 -1.14591,1.20435 -1.45045,1.30587 -0.26114,0.0871 -0.91413,0.60923 -1.49463,1.1896 -0.59478,0.60933 -1.14617,1.05936 -1.32027,1.05936 -0.23204,0 -0.28972,0.11615 -0.31882,0.74001 -0.0291,0.65286 0.0132,0.76894 0.43524,1.16065 0.37703,0.34819 0.43524,0.50745 0.37703,0.89916 -0.0434,0.30467 0.0437,0.6677 0.23204,1.04489 0.2032,0.37722 0.30506,0.8559 0.30506,1.37822 -0.0159,0.43521 0.0288,0.65267 0.0722,0.46405 0.15955,-0.63836 0.3773,-0.31901 0.34846,0.52245 -0.0159,0.44976 0.0286,0.85566 0.11562,0.89918 0.087,0.058 0.0582,0.24678 -0.0722,0.52245 -0.11615,0.23212 -0.24633,0.6967 -0.30453,1.04489 -0.0871,0.52229 -0.0582,0.5945 0.13017,0.52195 0.5805,-0.21762 0,1.04468 -0.78343,1.71204 -0.43524,0.39174 -1.0877,0.69643 -2.39342,1.14617 -2.11825,0.71088 -2.5826,0.97187 -2.91624,1.61023 -0.23204,0.44976 -0.2323,0.47911 0.0434,0.6532 0.2466,0.1596 0.26115,0.2902 0.1741,1.14618 -0.0579,0.52228 -0.0725,1.07349 -0.0288,1.20406 0.0291,0.13057 -0.0579,0.56584 -0.21749,0.95756 -0.15954,0.40621 -0.36301,1.11701 -0.46461,1.59578 -0.26114,1.23317 -0.47863,1.58115 -1.4216,2.21951 -1.07368,0.73991 -1.72667,1.40724 -2.07486,2.13267 -0.52229,1.0881 -2.2778,3.32282 -3.06123,3.88866 -0.42096,0.30467 -1.29144,1.05879 -1.92961,1.66812 -1.36393,1.30572 -2.93053,2.46663 -4.35213,3.19204 -0.88503,0.44974 -1.14644,0.52194 -2.10397,0.52194 -1.01547,0.0146 -1.08823,0.0437 -1.13162,0.33383 -0.0437,0.30467 -0.13044,0.33382 -0.85566,0.33382 -0.52229,0 -0.89985,0.0725 -1.0594,0.21757 -0.2032,0.1741 -0.33363,0.1741 -1.04457,0 -0.82682,-0.21762 -1.16046,-0.23217 -3.68485,-0.17415 -1.34938,0.0435 -1.52374,0.0724 -2.06031,0.44958 -0.522286,0.34822 -0.696386,0.39172 -1.755506,0.39172 -1.13163,0 -2.32119,0.33388 -2.5535,0.71107 -0.23204,0.37721 -1.97299,-0.0293 -2.14709,-0.49353 -0.0434,-0.11605 -0.30454,-0.23194 -0.56568,-0.26096 -0.36274,-0.029 -0.49345,-0.1161 -0.52255,-0.37724 -0.058,-0.39172 -0.46382,-0.42066 -0.56542,-0.029 -0.087,0.33369 -0.44979,0.39153 -0.56568,0.0724 -0.0436,-0.11607 -0.0159,-0.43489 0.0868,-0.71056 0.14499,-0.44974 0.13044,-0.56586 -0.13071,-0.94308 -0.17409,-0.23212 -0.30453,-0.49334 -0.30453,-0.56587 0,-0.0726 -0.15955,-0.29043 -0.36275,-0.47902 -0.43524,-0.42077 -0.47836,-0.85577 -0.0868,-0.85577 0.69638,0 0.957,-0.9575 0.53631,-1.95855 -0.11589,-0.26115 -0.53631,-0.95753 -0.92816,-1.55234 -0.87048,-1.29122 -1.14617,-1.82832 -1.82827,-3.58378 -0.47863,-1.21867 -1.1168,-2.32095 -1.43589,-2.45153 -0.44979,-0.20312 -1.71212,-1.49426 -2.10397,-2.16161 -0.55113,-0.94303 -1.11707,-2.33596 -0.98636,-2.46653 0.0434,-0.058 0,-0.23209 -0.11642,-0.39169 -0.23204,-0.36272 -0.34819,-0.91429 -0.53684,-2.61173 -0.1016,-0.81245 -0.27543,-1.55233 -0.47837,-1.95855 -0.27569,-0.53681 -0.34819,-0.9721 -0.4064,-2.29238 -0.0434,-1.01555 -0.0159,-1.59591 0.0725,-1.53786 0.21749,0.13057 -0.0291,-0.98621 -0.33391,-1.4795 -0.14499,-0.24664 -0.43497,-0.59483 -0.63817,-0.78343 -0.2032,-0.20312 -0.3773,-0.43537 -0.3773,-0.53692 0,-0.10154 -0.28998,-0.59499 -0.63817,-1.10275 -0.33364,-0.50779 -0.74004,-1.26188 -0.87075,-1.66812 -0.13044,-0.40619 -0.47836,-1.11705 -0.75406,-1.58131 -0.28998,-0.47876 -0.66754,-1.14623 -0.85619,-1.50895 -0.18865,-0.36269 -0.53684,-0.84166 -0.78343,-1.08831 -0.24659,-0.23212 -0.62362,-0.78327 -0.84111,-1.23301 -0.3048,-0.66736 -0.3773,-1.02994 -0.39185,-2.17609 -0.0159,-0.75441 -0.0871,-1.49458 -0.14526,-1.63968 -0.0725,-0.14507 -0.0582,-0.24651 0.0434,-0.24651 0.087,0 0.15954,0.11594 0.17409,0.24651 0,0.1451 0.0434,0.18884 0.0725,0.10179 0.0434,-0.087 0.0159,-0.53673 -0.058,-1.00097 -0.13044,-0.76893 -0.1016,-0.85641 0.2032,-1.1901 0.37704,-0.40619 0.89959,-1.97294 1.0594,-3.16259 0.0579,-0.40624 0.18838,-0.87029 0.27543,-1.04439 0.1016,-0.1741 0.17409,-0.50792 0.17409,-0.72554 0,-0.29017 0.15981,-0.58047 0.508,-0.91416 0.2757,-0.27564 0.50747,-0.60939 0.50747,-0.75446 0,-0.1451 0.23204,-0.3773 0.56568,-0.55139 0.92869,-0.46427 1.20439,-0.98632 1.36393,-2.61123 0.13044,-1.34924 0.13044,-1.42168 -0.21775,-1.973 -0.37703,-0.62383 -1.5666,-3.52549 -1.5666,-3.85918 0,-0.10155 0.20294,-0.31904 0.43497,-0.44961 0.56595,-0.34822 0.56595,-0.81246 0,-1.92958 -0.24659,-0.46426 -0.50773,-1.10299 -0.59478,-1.40766 -0.0725,-0.3047 -0.50773,-1.34927 -0.95753,-2.32132 -0.44979,-0.97206 -0.81253,-1.94398 -0.79798,-2.16162 0.0132,-0.2176 -0.11562,-0.63844 -0.28972,-0.94308 -0.17409,-0.30467 -0.42095,-0.78325 -0.56594,-1.05887 -0.13071,-0.27567 -0.49318,-0.7398 -0.78343,-1.01544 -0.30454,-0.27564 -0.88503,-0.94319 -1.32027,-1.48 -0.42069,-0.52229 -1.14618,-1.24759 -1.59571,-1.59578 -0.97207,-0.72538 -1.10278,-0.94316 -0.5371,-0.91416 0.2323,0.0145 0.29025,8e-5 0.14526,-0.0289 -0.13044,-0.029 -0.21776,-0.11613 -0.1741,-0.17415 0.0291,-0.0726 -0.0873,-0.0869 -0.26141,-0.0579 -0.26114,0.058 -0.42042,-0.0582 -0.73951,-0.53692 l -0.39238,-0.60926 0.33391,0.0868 c 0.18865,0.0435 0.13097,-0.0143 -0.13018,-0.13023 -0.52228,-0.23214 -0.58049,-0.34864 -0.30506,-0.62425 0.1307,-0.1306 0.1016,-0.17415 -0.14499,-0.17415 -0.17436,0 -0.33338,-0.0722 -0.33338,-0.14468 -0.0436,-0.30466 -0.0728,-0.37734 -0.30506,-0.72554 -0.33364,-0.50778 -0.72522,-1.45057 -0.59479,-1.45057 0.0728,0 0.20347,0.0577 0.31936,0.13022 0.14525,0.087 0.33364,2.7e-4 0.65272,-0.2899 0.39185,-0.36272 0.43524,-0.49366 0.43524,-1.21904 -0.0159,-0.82698 0.0437,-0.92842 0.36275,-0.62373 0.1016,0.10155 0.0434,-0.0437 -0.11642,-0.33383 l -0.31882,-0.53641 0.37729,-0.0873 c 0.26115,-0.0725 0.36275,-0.18846 0.36275,-0.43511 0,-0.18859 -0.10187,-0.37706 -0.21802,-0.435105 -0.24659,-0.087 -0.18812,-0.29032 0.42122,-1.2914 0.27569,-0.44974 0.39132,-0.81219 0.33337,-1.05884 -0.0291,-0.20309 0.0291,-0.85627 0.14499,-1.4366 l 0.21776,-1.05887 -0.4498,-0.60925 c -0.46407,-0.63836 -0.56594,-1.01595 -0.29024,-1.01595 0.0725,0 0.10186,-0.0722 0.0585,-0.1447 -0.0728,-0.11602 -0.16007,-0.1016 -0.30507,0.0145 -0.29024,0.23212 -1.08796,-0.26146 -1.36366,-0.8563 -0.15954,-0.34819 -0.30453,-0.46405 -0.60933,-0.46405 -0.26115,0 -0.40614,-0.0725 -0.40614,-0.21754 0,-0.23212 -0.2323,-0.30496 -0.31935,-0.0873 -0.0132,0.087 -0.47863,0.1596 -1.01547,0.17415 -0.65273,0.0145 -1.00092,0.0869 -1.04431,0.23201 -0.0437,0.10158 -0.14552,0.18863 -0.24712,0.18863 -0.0871,0 -0.13044,-0.10147 -0.0722,-0.21755 0.1016,-0.26114 -0.21749,-0.29006 -0.46408,-0.0434 -0.13071,0.13057 -0.21776,0.13057 -0.34846,0 -0.24659,-0.24665 -0.4789,-0.2177 -0.26141,0.0289 0.13071,0.1741 0.073,0.23231 -0.34766,0.31935 -0.29025,0.0435 -0.65326,0.058 -0.81306,0.0146 -0.15955,-0.0435 -0.33364,-0.0146 -0.37704,0.0579 -0.0437,0.087 -0.21775,0.10194 -0.39184,0.0439 -0.65273,-0.18862 -1.40706,-1.14655 -1.40706,-1.78491 0,-0.14507 -0.0871,-0.30427 -0.17409,-0.34779 -0.14526,-0.0435 -0.14526,-0.10187 0,-0.27596 0.14499,-0.1886 0.1307,-0.23183 -0.13044,-0.30435 -0.1741,-0.0435 -0.26088,-0.14547 -0.20294,-0.23255 0.0434,-0.087 0,-0.1597 -0.10186,-0.1597 -0.1016,0 -0.31883,-0.23172 -0.47863,-0.52191 -0.40614,-0.76891 -1.36393,-1.27694 -2.42306,-1.27694 -0.46408,-0.0145 -0.84111,-0.0577 -0.84111,-0.13022 0,-0.058 0.0725,-0.10179 0.1741,-0.10179 0.087,0 0.13017,-0.0433 0.0868,-0.0868 -0.0579,-0.0435 -0.24659,0.014 -0.43524,0.1447 -0.24659,0.15957 -0.72575,0.21757 -1.79917,0.21757 -1.828,0 -3.27871,0.31964 -3.7285,0.79838 -0.46435,0.50779 -0.92843,0.60923 -1.04432,0.23204 -0.1016,-0.30467 -0.62388,-0.66754 -0.76914,-0.52245 -0.0434,0.0435 0,0.0873 0.0868,0.0873 0.1741,0 0.60987,0.40574 0.60987,0.56534 0,0.0725 -0.24659,0.16005 -0.53684,0.2036 -0.3048,0.058 -1.08823,0.36245 -1.75551,0.68162 -0.65273,0.31919 -1.59597,0.6818 -2.08915,0.79787 -0.4789,0.13057 -1.05939,0.37733 -1.27714,0.53692 -0.42069,0.30467 -0.49266,0.30435 -1.52268,-0.0873 -0.31935,-0.1161 -0.85646,-0.21746 -1.19036,-0.23201 -0.34793,0 -0.62363,-0.0433 -0.62363,-0.11576 0,-0.20314 -2.53894,-0.18867 -4.42515,0.029 -1.74096,0.20309 -2.93053,0.47868 -3.32211,0.79788 -0.087,0.0725 -0.72522,0.33366 -1.42161,0.58031 -1.18983,0.43524 -1.30598,0.4496 -1.66872,0.24651 -0.23204,-0.11607 -1.05887,-0.5075 -1.8423,-0.88471 -1.18956,-0.56581 -1.66846,-0.89975 -2.64054,-1.8283 -0.69638,-0.66736 -1.47955,-1.26201 -1.85684,-1.43611 -0.36275,-0.14507 -0.66755,-0.34811 -0.66755,-0.42063 0,-0.0871 -0.26114,-0.29051 -0.56594,-0.45011 -0.31909,-0.15957 -0.66728,-0.40632 -0.76888,-0.55139 -0.2757,-0.39172 -2.45189,-1.50844 -3.27898,-1.69704 -0.50774,-0.10157 -0.49319,-0.36277 0,-0.36277 0.29025,0 0.29025,-0.0148 -0.0434,-0.30491 -0.18865,-0.15957 -0.33391,-0.39139 -0.3048,-0.50744 0.0291,-0.11607 -0.11589,-0.27572 -0.30454,-0.36277 -0.18838,-0.0871 -0.46408,-0.34822 -0.59478,-0.58034 l -0.26141,-0.4351 0.42122,0.10128 c 0.37729,0.087 0.39131,0.0723 0.13017,-0.11626 -0.21749,-0.17412 -0.24633,-0.2608 -0.10133,-0.52194 0.1016,-0.20312 0.11615,-0.31936 0.0291,-0.31936 -0.0871,0 -0.18865,-0.15967 -0.24659,-0.34829 -0.0434,-0.1886 -0.23257,-0.49305 -0.42122,-0.66715 -0.18865,-0.18859 -0.30453,-0.42077 -0.26088,-0.58034 0.0434,-0.17409 -0.0288,-0.29022 -0.26088,-0.36277 -0.47889,-0.15957 -1.66846,-1.04433 -1.9296,-1.45055 -0.13071,-0.20315 -0.20347,-0.44987 -0.14526,-0.53692 0.0579,-0.10154 0.0437,-0.11644 -0.0579,-0.0584 -0.11616,0.0725 -0.1741,-0.0287 -0.1741,-0.30438 -0.0159,-0.36271 -0.0291,-0.37729 -0.2032,-0.15967 -0.24659,0.34819 -0.47863,0.33377 -0.59478,-0.029 -0.0434,-0.15957 -0.15955,-0.29041 -0.23204,-0.29041 -0.23204,0 -0.56568,-0.39155 -0.56568,-0.65267 0,-0.13055 -0.0582,-0.18875 -0.14526,-0.14523 -0.2032,0.13057 -0.17436,-0.1592 0.0288,-0.3333 0.1016,-0.0725 0.31935,-0.17457 0.47916,-0.21806 0.24659,-0.058 0.23178,-0.0723 -0.073,-0.0868 -0.49319,-0.029 -0.78317,-0.23191 -0.65273,-0.46405 0.0871,-0.13058 0.0579,-0.14545 -0.15954,-0.0584 -0.3773,0.17405 -1.33483,0.15963 -1.50892,-0.0146 -0.087,-0.087 -0.1741,-0.30443 -0.18865,-0.47853 -0.0159,-0.15959 -0.0871,-0.30487 -0.1741,-0.30487 -0.0725,-0.0146 -0.28998,-0.13031 -0.47863,-0.28991 -0.30453,-0.24664 -0.3339,-0.39187 -0.3048,-1.30588 0.0132,-0.56583 -0.0159,-1.05923 -0.0579,-1.10275 -0.0579,-0.058 -0.0291,-0.21765 0.0579,-0.37725 0.14499,-0.26114 0.1741,-0.26101 0.40614,-0.0579 0.14499,0.13058 0.37729,0.23204 0.53684,0.23204 0.2032,0 0.15981,-0.0723 -0.20294,-0.2899 -0.3048,-0.18862 -0.46434,-0.3774 -0.40613,-0.50797 0.0434,-0.13063 0,-0.17431 -0.14526,-0.11629 -0.24659,0.0871 -0.2757,-0.11562 -0.0291,-0.36224 0.1307,-0.13057 0.11641,-0.17415 -0.0722,-0.17415 -0.15955,0 -0.24713,-0.11631 -0.24713,-0.3049 0,-0.36272 -0.88476,-1.29138 -1.2184,-1.29138 -0.36275,0 -0.29025,-0.1301 0.42069,-0.75396 0.95752,-0.84145 1.36392,-1.62536 1.43642,-2.74248 0.0437,-0.60934 0.24659,-1.40685 0.59478,-2.29185 0.508,-1.2912 0.52229,-1.42195 0.42069,-2.4665 -0.13044,-1.39277 -0.26088,-1.85711 -0.65273,-2.29238 -0.27543,-0.27561 -0.30453,-0.39192 -0.15954,-0.68212 0.11615,-0.26112 0.11615,-0.37714 0,-0.40619 -0.1016,-0.0435 -0.13097,-0.17378 -0.0728,-0.31885 0.0579,-0.15954 0.18865,-0.2322 0.31935,-0.17415 0.31909,0.11605 0.2757,-0.87058 -0.0725,-1.50894 -0.15954,-0.27564 -0.27569,-0.42087 -0.29051,-0.33383 0,0.37722 -0.28998,0.17415 -0.59478,-0.42066 l -0.31882,-0.60925 -0.33364,0.42063 c -0.29025,0.36272 -0.3482,0.3918 -0.43524,0.17418 -0.13044,-0.33372 0.21748,-2.53908 0.47863,-3.04687 0.11589,-0.21762 0.34819,-0.46386 0.53684,-0.52191 0.17409,-0.0725 0.42095,-0.3774 0.55139,-0.6966 0.59478,-1.37827 0.84164,-1.88595 1.14617,-2.36471 l 0.33338,-0.508 -0.33338,0.29043 -0.34819,0.28991 0.1741,-0.31885 c 0.087,-0.1741 0.49292,-0.59492 0.89905,-0.94308 1.71186,-1.43632 1.62507,-1.32046 1.72667,-2.23449 0.0725,-0.49329 0.31909,-1.27638 0.59479,-1.87121 0.44979,-0.91401 0.58049,-1.05934 1.30572,-1.45108 1.14617,-0.60934 1.21893,-0.69649 1.50891,-1.71204 0.13071,-0.49329 0.3048,-0.97184 0.36275,-1.04439 0.0728,-0.087 0.11589,-0.20341 0.10133,-0.27594 -0.0579,-0.30466 0.94351,-0.6817 2.22012,-0.84129 1.04458,-0.13055 1.43616,-0.24675 1.81319,-0.53692 0.26115,-0.2031 0.87075,-0.66725 1.33482,-1.01545 1.14618,-0.885 2.94508,-2.64051 2.94508,-2.90163 0,-0.1161 -0.0871,-0.31903 -0.20293,-0.43511 -0.15981,-0.17409 -0.17436,-0.47905 -0.10187,-1.24798 0.0725,-0.87048 0.17436,-1.11668 0.63871,-1.72601 0.34819,-0.46424 0.53684,-0.87051 0.53684,-1.16065 0,-0.36272 0.17409,-0.60939 0.97207,-1.3348 0.81254,-0.7544 1.23296,-1.01581 2.75643,-1.65417 1.71186,-0.72544 1.81319,-0.8123 2.42253,-1.61023 0.34819,-0.44979 0.88503,-1.42176 1.18957,-2.14715 0.3048,-0.72543 0.62415,-1.33469 0.72575,-1.37821 0.0871,-0.029 0.46408,-0.11618 0.84111,-0.15968 0.65299,-0.10157 0.66781,-0.0873 0.66781,0.26096 0,0.26112 0.15954,0.50776 0.53684,0.78341 0.50773,0.39171 0.59451,0.40611 2.20503,0.42066 1.00092,0 1.85711,-0.0581 2.13281,-0.15968 0.39158,-0.15957 0.47863,-0.14496 0.81227,0.14521 0.33364,0.27572 0.508,0.31951 1.23349,0.26148 1.18956,-0.0871 1.69704,-0.27577 2.45163,-0.92863 0.37703,-0.33367 0.81227,-0.56587 1.0152,-0.56587 0.2032,0 0.53711,-0.11591 0.74004,-0.24648 0.2757,-0.1886 0.40667,-0.20344 0.45006,-0.0729 0.087,0.29017 0.31909,0.20344 0.89932,-0.31885 0.95752,-0.85598 2.78553,-1.39319 4.81674,-1.39319 1.03002,0 1.17528,-0.043 1.50892,-0.36224 0.37729,-0.39171 0.63817,-0.46474 0.63817,-0.20362 0,0.10163 0.21749,0.13084 0.62389,0.0873 1.98755,-0.26117 2.39421,-0.27591 3.30835,-0.10181 0.55113,0.087 1.00092,0.23238 1.00092,0.3049 0,0.1886 0.63817,0.15965 0.82682,-0.0289 0.087,-0.0871 0.46408,-0.21783 0.84111,-0.29041 0.36274,-0.0725 0.76914,-0.21722 0.8853,-0.34779 0.27569,-0.27567 0.47863,-0.27567 0.84137,0 0.39158,0.29016 1.24804,0.29016 1.24804,0 0,-0.2902 0.13044,-0.27586 1.02976,0.0723 0.60933,0.24665 0.82682,0.2758 1.21867,0.14523 0.26114,-0.087 0.6387,-0.11644 0.84164,-0.0584 0.26114,0.058 0.63817,-0.0432 1.21867,-0.31885 0.46408,-0.21762 1.00092,-0.44998 1.20412,-0.50797 0.1741,-0.0544 0.35242,-0.08 0.50482,-0.0812 z m -54.9992,18.66966 c 0.28998,0.0193 0.32834,0.34996 -0.14314,0.79428 -0.46435,0.42074 -0.53684,0.43537 -0.79799,0.13073 -0.15954,-0.20315 -0.14499,-0.29017 0.2032,-0.58031 0.29925,-0.25572 0.56383,-0.35626 0.73793,-0.3447 z m -10.20975,0.86146 c 0.13415,-0.005 0.25744,0.0182 0.31724,0.078 0.1307,0.13057 -0.10187,0.98634 -0.27596,1.04439 -0.23204,0.087 -0.6813,-0.62354 -0.56542,-0.89919 0.0455,-0.12694 0.30031,-0.2146 0.52414,-0.22322 z m 9.20512,0.28628 c 0.11404,-0.004 0.20849,0.0529 0.25215,0.18346 0.0434,0.10157 0.0159,0.40605 -0.0579,0.65267 -0.13044,0.52229 -0.72549,0.91414 -1.36367,0.91414 h -0.40613 l 0.37729,-0.40617 c 0.20294,-0.21764 0.47864,-0.60957 0.60908,-0.87074 0.15425,-0.29017 0.39899,-0.46657 0.58922,-0.47336 z m -5.50412,0.31056 c 0.12329,-0.0108 0.22145,0.0323 0.2868,0.13386 0.1016,0.15959 -0.87048,1.39287 -1.17501,1.50894 -0.15981,0.058 -0.78343,-0.71086 -0.78343,-0.97203 0,-0.0435 0.21722,-0.13062 0.47836,-0.17414 0.24686,-0.058 0.59505,-0.20281 0.7546,-0.30438 0.16668,-0.11605 0.31538,-0.18135 0.43868,-0.19225 z m -2.25214,0.8594 c 0.18865,0 0.46435,0.42071 0.36275,0.58031 -0.0434,0.0725 -0.21749,0.14523 -0.36275,0.14523 -0.36248,0 -0.508,-0.24683 -0.29025,-0.50798 0.1016,-0.11607 0.23231,-0.21756 0.29025,-0.21756 z m 3.76635,0.14573 c 0.24368,-0.0148 0.48974,0.1007 0.5715,0.31832 0.14499,0.40624 0.0582,0.66767 -0.28999,0.85627 -0.59478,0.31919 -1.16072,-0.52221 -0.68209,-1.00097 0.10874,-0.1088 0.25426,-0.16478 0.40058,-0.17362 z m 199.545306,0.36637 19.89455,19.89439 -4.97391,4.97387 -7.46019,-7.46053 -14.92091,14.92104 -4.97337,-4.97385 14.92064,-14.92054 -7.46072,-7.46051 z M 6.052514,37.534645 c 0.0159,-0.0145 0.11589,0.0288 0.24659,0.0723 0.1741,0.0726 0.18839,0.13065 0.0434,0.36277 -0.2032,0.33369 -0.58024,0.36258 -0.82683,0.0579 -0.14499,-0.17407 -0.11589,-0.23225 0.15955,-0.3483 0.18864,-0.0725 0.36274,-0.1447 0.37729,-0.1447 z m 122.165796,0.44236 c 0.10398,0.007 0.25135,0.10324 0.2966,0.23926 0.0291,0.1016 -0.0291,0.14534 -0.1741,0.0873 -0.1307,-0.0435 -0.23204,-0.16002 -0.23204,-0.23254 0,-0.0707 0.0471,-0.0983 0.10954,-0.094 z M -4.968436,62.799765 c 0.20426,0.0124 0.3937,0.0876 0.42995,0.19637 0.0434,0.13055 -0.63844,0.493 -0.91414,0.493 -0.14526,0 -0.0288,-0.56565 0.1307,-0.6382 0.10346,-0.0435 0.23099,-0.0586 0.35349,-0.0512 z m 0.48471,0.56793 c 0.0998,-0.004 0.13388,0.0583 0.13388,0.19431 0,0.11607 -0.13097,0.21756 -0.29051,0.21756 -0.31909,0 -0.39132,-0.2178 -0.10133,-0.33385 0.1143,-0.0489 0.1979,-0.0755 0.25796,-0.078 z m 4.55322005,0.0403 c 0.0489,0.0164 0.10716,0.0669 0.17992,0.15399 0.21748,0.31919 0.24632,0.65267 0.0434,0.65267 -0.2032,0 -0.46435,-0.56589 -0.34846,-0.75449 0.0362,-0.0508 0.0762,-0.0685 0.12515,-0.0522 z m -4.04204005,0.22632 c 0.0288,0 0.0577,0.0582 0.0577,0.14523 0,0.0725 -0.0725,0.14521 -0.15955,0.14521 -0.0728,0 -0.10133,-0.0727 -0.0579,-0.14521 0.0437,-0.087 0.11615,-0.14523 0.15981,-0.14523 z m 0.92287,0.30128 c 0.0815,0 0.20134,0.0251 0.41195,0.076 0.44953,0.13057 0.40587,0.30469 -0.11641,0.37724 -0.39185,0.058 -0.68157,-0.17415 -0.47864,-0.37724 0.0582,-0.0508 0.10134,-0.076 0.1831,-0.076 z m 231.605926,0.58084 h 9.94727 l 9.94728,9.9472 0.6215,10.56886 -7.46045,7.46054 -15.54269,-15.54274 v 6.21721 l 12.43436,12.43385 -4.35213,4.35221 -15.54242,-15.54273 v -9.9472 z m -86.25973,0.29766 c 0.1061,0.0183 0.24792,0.14071 0.24792,0.28578 0,0.11607 0.0577,0.29017 0.13017,0.39171 0.0582,0.10155 0.0294,0.27562 -0.0577,0.39169 -0.2323,0.27567 -0.49344,0.27567 -0.37729,0 0.0434,-0.11607 0.0159,-0.21754 -0.0725,-0.21754 -0.087,0 -0.0437,-0.11642 0.10134,-0.24701 0.15954,-0.1596 0.18891,-0.26086 0.073,-0.30438 -0.087,-0.029 -0.1598,-0.11607 -0.1598,-0.20309 0,-0.0816 0.0511,-0.10811 0.11482,-0.0972 z M 0.23988405,64.956735 c 0.0672,-0.009 0.16854,0.0416 0.35719,0.14314 0.23204,0.11607 0.26141,0.18867 0.11642,0.36277 -0.31936,0.39174 -0.79799,0.1738 -0.62389,-0.29044 0.0508,-0.13782 0.0833,-0.20642 0.15028,-0.21547 z M 143.09583,65.714815 c 0.0362,0.003 0.0722,0.038 0.11589,0.1106 0.0725,0.11604 0.0579,0.21746 -0.0291,0.26096 -0.21748,0.0726 -0.31908,-0.0868 -0.20293,-0.27544 v 0 c 0.0434,-0.0652 0.0799,-0.0974 0.11615,-0.0956 z m -143.52851595,1.40147 c 0.087,0 0.14499,0.13081 0.14499,0.29041 0,0.15957 -0.0579,0.2899 -0.14499,0.2899 -0.0728,0 -0.14526,-0.13033 -0.14526,-0.2899 0,-0.1596 0.0725,-0.29041 0.14526,-0.29041 z m -1.16231005,0.15605 c 0.11244,0 0.24632,0.0892 0.43656,0.27959 0.34819005,0.34819 0.36301005,0.56557 0.0873,0.66712 -0.47863,0.18862 -1.05913,-0.52205 -0.71094,-0.85574 0.0598,-0.0598 0.1196,-0.0913 0.18707,-0.091 z m 150.406356,2.21848 c 0.0212,0.003 0.0402,0.009 0.0582,0.0196 0.17409,0.11607 0.17409,0.50747 0,0.50747 -0.20294,0 -0.33338,-0.26104 -0.23178,-0.43513 0.0434,-0.0653 0.11166,-0.0981 0.17357,-0.092 z m -0.15928,0.81751 c 0.11615,0 0.17436,0.0577 0.1307,0.1447 -0.0434,0.0725 -0.14499,0.14521 -0.23203,0.14521 -0.0725,0 -0.13071,-0.0727 -0.13071,-0.14521 0,-0.087 0.1016,-0.1447 0.23204,-0.1447 z m -136.898056,0.60928 c -0.2757,0 -0.39159,0.0288 -0.24659,0.0723 0.1307,0.029 0.36248,0.029 0.50747,0 0.1307,-0.0435 0.0159,-0.0723 -0.26088,-0.0723 z m 163.092336,1.76422 c 0.5551,0.006 1.13903,0.071 1.35652,0.19431 0.26114,0.1596 0.24712,0.18841 -0.36222,0.46405 -0.85592,0.39174 -1.65417,0.39174 -2.04575,0 -0.21776,-0.21759 -0.26141,-0.34792 -0.13097,-0.493 0.1016,-0.11604 0.62759,-0.17078 1.18242,-0.16536 z m -4.11295,1.02838 c 0.0725,-0.007 0.17436,-8e-5 0.29051,0.0217 0.4498,0.11604 0.55113,0.17441 0.43498,0.27596 -0.11589,0.13054 -0.84111,-0.0869 -0.84111,-0.23204 0,-0.0363 0.0431,-0.0584 0.11562,-0.0656 z m 2.20557,0.0801 c 0.0871,0 0.14473,0.0577 0.14473,0.1447 0,0.0726 -0.0577,0.14521 -0.14473,0.14521 -0.0725,0 -0.14526,-0.0727 -0.14526,-0.14521 0,-0.087 0.0728,-0.1447 0.14526,-0.1447 z m 90.4322,0.67334 5.59567,5.59551 -14.92117,14.92055 4.9739,4.97387 11.81206,-3.10885 7.46072,7.460505 -16.78623,3.10835 -3.10832,16.78604 -6.83869,-6.83885 1.86479,-13.05554 -4.35161,-4.351655 -7.46045,7.460005 -5.59541,-5.59501 z m -249.644156,0.0517 c -0.11616,0 -0.26088,0.0582 -0.30427,0.14523 -0.0437,0.0725 0.0434,0.14521 0.20293,0.14521 0.1741,0 0.30454,-0.0727 0.30454,-0.14521 0,-0.0871 -0.087,-0.14523 -0.2032,-0.14523 z m -1.90077,0.87075 c 0.24686,0 0.27596,0.13046 0.073,0.43513 -0.1016,0.1596 -0.17436,0.17396 -0.3048,0.0434 -0.087,-0.087 -0.2614,-0.13033 -0.363,-0.0868 -0.11589,0.0435 -0.20294,0 -0.20294,-0.0873 0,-0.087 -0.10133,-0.11591 -0.24659,-0.0579 -0.15954,0.058 -0.2032,0.0437 -0.13071,-0.0724 0.13071,-0.20313 0.11616,-0.20302 0.58024,-0.0289 0.24685,0.087 0.37729,0.087 0.37729,0 0,-0.087 0.1016,-0.14523 0.21749,-0.14523 z m 0.66781,0.14523 c 0.087,0 0.10133,0.0576 0.0579,0.14467 -0.0437,0.0725 -0.15954,0.14523 -0.23204,0.14523 -0.0871,0 -0.10133,-0.0727 -0.0579,-0.14523 0.0434,-0.0871 0.15954,-0.14467 0.23204,-0.14467 z m -1.23349,0.4351 c 0.0291,0 0.0585,0.0582 0.0585,0.14521 0,0.0725 -0.0728,0.1447 -0.15981,0.1447 -0.0725,0 -0.10133,-0.0722 -0.0579,-0.1447 0.0437,-0.087 0.11562,-0.14521 0.15928,-0.14521 z m 1.16575,0.0512 c 0.0159,0.003 0.0352,0.0103 0.0532,0.0212 0.11615,0.0725 0.1016,0.15984 -0.0132,0.30491 -0.11616,0.14509 -0.21776,0.15943 -0.34846,0.0579 -0.13044,-0.11605 -0.21775,-0.11605 -0.29051,0 -0.0434,0.0726 -0.0132,0.14523 0.0585,0.14523 0.0871,0 0.15928,0.0582 0.15928,0.1452 0,0.23212 -0.24633,0.15934 -0.34793,-0.10181 -0.1016,-0.26114 0.1741,-0.50773 0.46408,-0.40616 0.087,0.029 0.1741,2.4e-4 0.1741,-0.0868 0,-0.0653 0.041,-0.0898 0.0921,-0.0796 z m -1.28931,0.39894 c 0.0265,-0.003 0.0582,0.003 0.0945,0.014 0.14525,0.0145 0.24712,0.10157 0.24712,0.18862 -0.0159,0.21764 -0.34872,0.17423 -0.42122,-0.0434 -0.0325,-0.0979 0,-0.15507 0.0796,-0.15915 z m 58.59754,17.01858 c 0.41275,-0.0233 0.52678,0.46879 0.19685,1.11623 -0.31936,0.60933 -0.508,0.68194 -0.94324,0.36277 -0.26115,-0.1886 -0.26115,-0.20307 0.0434,-0.59481 0.17409,-0.21762 0.31961,-0.47927 0.31961,-0.59531 0,-0.10158 0.0871,-0.20296 0.18839,-0.24649 0.0709,-0.0254 0.13599,-0.0391 0.195,-0.0424 z m -170.779824,2.3022 19.894294,19.894385 -4.9739,4.97385 -7.46046,-7.46051 -14.920384,14.92104 -4.9739,-4.97385 14.920914,-14.92054 -7.460464,-7.46053 z m 167.551634,2.72645 c 0.0601,-0.0127 0.0884,0.0919 0.0884,0.30954 0,0.23211 -0.0437,0.27527 -0.1598,0.15917 -0.087,-0.087 -0.11589,-0.2318 -0.0722,-0.31885 0.0598,-0.0925 0.10742,-0.14229 0.14366,-0.14986 z M 141.71259,113.6768 c 0.0757,-0.0164 0.17542,0.043 0.29501,0.1845 0.15954,0.21762 0.0579,1.1317 -0.1307,1.1317 -0.0725,0 -0.1741,0.0143 -0.21749,0.0289 -0.0437,0.029 -0.10134,-0.26098 -0.11589,-0.65267 -0.0185,-0.42616 0.0426,-0.66511 0.16907,-0.69247 z m -1.03611,2.04692 c 0.10874,-0.0148 0.22331,0.12359 0.28681,0.38653 0.0579,0.23215 0.18812,0.50763 0.30427,0.63821 0.18865,0.23214 0.13097,0.71106 -0.11562,0.71106 -0.0582,0 -0.17463,-0.10144 -0.24712,-0.23201 -0.0725,-0.13057 -0.18839,-0.20317 -0.26088,-0.17415 -0.14526,0.0435 -0.26141,-0.82706 -0.14526,-1.13173 0.0489,-0.12512 0.11245,-0.18907 0.1778,-0.19791 z m 1.41526,4.64416 c 0.12647,0 0.10292,0.17084 -0.14208,0.44286 -0.2466,0.27567 -0.63871,0.37724 -0.63871,0.17414 0,-0.058 0.1741,-0.24653 0.40614,-0.42063 0.1688,-0.13602 0.29898,-0.1968 0.37465,-0.19637 z m -223.242716,0.2377 h 4.97337 l 12.43383,12.43388 -4.97337,4.97385 -9.94701,-9.9472 -14.92118,14.92055 -4.97337,-4.97335 z m 238.711046,4.25299 c 0.0871,0 0.14526,0.0582 0.14526,0.1452 0,0.0725 -0.0582,0.14521 -0.14526,0.14521 -0.0725,0 -0.14525,-0.0727 -0.14525,-0.14521 0,-0.087 0.0728,-0.1452 0.14525,-0.1452 z m -7.52554,3.9248 c 0.13917,0 0.29316,0.20622 0.4019,0.58706 0.2323,0.75441 0.0291,1.04495 -0.42069,0.63873 -0.28998,-0.26114 -0.36248,-0.59476 -0.20293,-1.00097 0.0598,-0.15235 0.13811,-0.22548 0.22172,-0.22482 z m 13.86628,1.48519 c 0.13176,-0.0228 0.27358,0.0996 0.31882,0.33538 0.0291,0.14507 0.17384,0.36254 0.31883,0.46406 0.15954,0.10157 0.27596,0.27564 0.27596,0.39171 0,0.10155 0.20293,0.39204 0.43524,0.65318 0.27569,0.30467 0.43497,0.62357 0.43497,0.88471 0,0.24665 0.13097,0.69623 0.30507,1.02992 0.18838,0.36269 0.26088,0.71094 0.20293,0.94308 -0.0434,0.18862 -0.0291,0.42085 0.0288,0.52245 0.0582,0.087 0.0871,0.42087 0.058,0.72554 -0.0288,0.42074 0.0582,0.71051 0.34845,1.11672 0.39159,0.56584 0.39185,0.56611 0.15955,1.26246 -0.13044,0.37722 -0.29025,0.78362 -0.36275,0.89969 -0.2032,0.31917 -0.59452,0.058 -0.84137,-0.56586 -0.13044,-0.31919 -0.29025,-0.58031 -0.36275,-0.58031 -0.23204,0 -0.3048,0.46429 -0.1307,0.75446 0.0871,0.14507 0.13044,0.33364 0.0868,0.40619 -0.0434,0.0725 0.0291,0.30432 0.15981,0.50744 0.21749,0.31917 0.21802,0.44974 0.0585,0.98653 -0.1016,0.33369 -0.30506,0.6968 -0.45032,0.79838 -0.23204,0.15959 -0.27543,0.37708 -0.27543,1.20406 0,0.85598 -0.1307,1.39272 -0.85619,3.51089 -0.46434,1.36377 -0.98663,2.82919 -1.16073,3.24996 -0.15954,0.42071 -0.39132,1.1603 -0.50747,1.66809 -0.11589,0.50779 -0.42095,1.36379 -0.66754,1.9296 -0.24659,0.55132 -0.65246,1.81383 -0.88477,2.80035 -0.23204,0.97206 -0.5371,2.01663 -0.69665,2.3213 -0.14499,0.29017 -0.37676,0.88461 -0.52175,1.30535 -0.29025,0.88498 -0.60987,1.14631 -1.61079,1.2914 -0.39185,0.0435 -1.16072,0.30467 -1.72667,0.58031 -0.55113,0.26115 -1.08797,0.47853 -1.20385,0.47853 -0.1016,0 -0.49319,-0.15915 -0.87022,-0.36224 -0.37729,-0.20312 -0.82761,-0.36277 -1.00171,-0.36277 -0.33364,0 -1.49384,-1.01566 -1.49384,-1.32033 0,-0.10154 -0.14525,-0.33382 -0.31935,-0.52244 -0.36274,-0.37719 -0.53657,-1.71186 -0.28998,-2.17612 0.1307,-0.23212 0.0725,-0.44982 -0.36275,-1.1317 -0.72548,-1.14615 -0.79824,-2.11807 -0.29051,-3.33674 0.18865,-0.47877 0.47863,-0.92845 0.62389,-1.00097 0.15954,-0.0725 0.49345,-0.56603 0.74004,-1.10279 0.26114,-0.53681 0.6387,-1.20433 0.82735,-1.49447 0.21749,-0.31919 0.30454,-0.56573 0.21749,-0.62376 -0.087,-0.0435 -0.11642,-0.31906 -0.0585,-0.62372 0.0582,-0.36269 0.0159,-0.60926 -0.13017,-0.81235 -0.13044,-0.15957 -0.23257,-0.47898 -0.23257,-0.6966 0,-0.21765 -0.11589,-0.63844 -0.27543,-0.94311 -0.14499,-0.30466 -0.3048,-1.03015 -0.36274,-1.71204 -0.0871,-1.16062 -0.0871,-1.16022 0.42068,-1.88565 0.3482,-0.49327 0.508,-0.87085 0.508,-1.21905 0,-0.66735 0.21776,-0.87024 0.88503,-0.87024 0.31936,0 0.68157,-0.11623 0.92816,-0.31935 0.24659,-0.20312 0.43577,-0.26122 0.46461,-0.15968 0.0725,0.20313 0.65273,0.0581 0.81227,-0.20309 0.0582,-0.10152 0.27543,-0.18862 0.47863,-0.18862 0.2032,0 0.49372,-0.0722 0.65326,-0.1447 0.21749,-0.11607 0.27543,-0.10171 0.27543,0.0579 0,0.11605 0.0582,0.24638 0.13071,0.2899 0.0725,0.058 0.10133,-0.0435 0.0579,-0.20309 -0.087,-0.34817 0.37703,-0.92829 0.98637,-1.24748 0.42068,-0.2176 0.56594,-0.14526 0.56594,0.26098 0,0.1451 0.0728,0.26149 0.14526,0.26149 0.087,0 0.11588,-0.15965 0.0577,-0.36277 -0.0579,-0.26115 0.0159,-0.53687 0.29052,-0.94311 0.39185,-0.58031 0.57996,-0.69625 0.73951,-0.43511 0.15954,0.26115 0.49345,-0.18888 0.3339,-0.47905 -0.15954,-0.31917 -0.0434,-0.53692 0.3048,-0.53692 0.2032,0 0.26115,-0.10149 0.24659,-0.40616 -0.0132,-0.21765 -0.0728,-0.47877 -0.14525,-0.58034 -0.11615,-0.20309 0.26141,-0.89916 0.49345,-0.89916 0.0725,0 0.17409,0.13031 0.21748,0.2899 0.0582,0.15957 0.15955,0.26104 0.23204,0.21754 0.18865,-0.13059 0.15981,-0.62357 -0.0434,-0.68159 -0.20293,-0.0726 -0.0579,-0.55139 0.17436,-0.55139 0.0725,0 0.14499,0.15968 0.14499,0.36277 0,0.30467 0.0431,0.33356 0.33338,0.23201 0.36274,-0.13057 0.82735,-0.92826 0.82735,-1.45055 0,-0.20309 -0.10186,-0.47916 -0.24712,-0.62426 -0.21749,-0.24656 -0.21722,-0.26095 0.0585,-0.26095 0.3048,0 0.66728,-0.3337 0.81227,-0.76894 0.0492,-0.12514 0.12462,-0.19095 0.20373,-0.20465 z m -11.2313,0.21653 c 0.13468,0.0164 0.24051,0.0896 0.30586,0.22014 0.2032,0.39171 -0.0722,0.58057 -0.46408,0.3049 -0.40613,-0.27567 -0.40613,-0.46447 0.0159,-0.52244 0.0508,-0.007 0.0987,-0.008 0.14367,-0.003 z m -1.81901,0.33073 c 0.0725,-0.003 0.18098,0.0421 0.32597,0.13642 0.11615,0.0725 0.15981,0.17402 0.11642,0.23204 -0.14526,0.1306 -0.55139,-0.0434 -0.55139,-0.23204 0,-0.087 0.0365,-0.13462 0.109,-0.13642 z m 3.47875,1.01904 c 0.0839,0.003 0.19314,0.0458 0.32914,0.13283 0.14525,0.087 0.15954,0.1452 0.0434,0.1452 -0.10134,0 -0.18838,0.10149 -0.18838,0.21757 0,0.11607 -0.0871,0.21756 -0.2032,0.21756 -0.11616,0 -0.18865,-0.14515 -0.18865,-0.36277 0,-0.23577 0.0683,-0.35263 0.2077,-0.35039 z m -215.586206,3.69126 17.40773,17.40773 v 4.97385 l -17.40773,17.4072 -16.78569,-16.78553 v -4.97385 l 4.97337,-4.97335 1.93278,0.48318 5.68325,-7.78867 -0.77708,-0.77671 z m 227.011436,5.7826 c 0.0757,-0.003 0.0238,0.19077 -0.15663,0.55346 -0.2032,0.37721 -0.2757,0.42066 -0.31935,0.21754 -0.0291,-0.14507 0.0579,-0.39177 0.2032,-0.55137 0.13599,-0.1469 0.22727,-0.21836 0.27278,-0.21963 z m -17.05901,0.66921 c 0.0871,0 0.15981,0.0581 0.15981,0.1452 0,0.0725 -0.0288,0.14521 -0.0579,0.14521 -0.0434,0 -0.11616,-0.0727 -0.15955,-0.14521 -0.0436,-0.0871 -0.0159,-0.1452 0.0577,-0.1452 z m -180.110866,8.46923 4.9739,4.97335 -22.3811,22.38158 10.56878,10.56886 -4.9739,4.97335 -13.05534,-13.05552 v -4.97388 z m 163.151346,2.12186 c 0.087,0 0.14499,0.13081 0.14499,0.2904 0,0.15957 -0.058,0.28991 -0.14499,0.28991 -0.0725,0 -0.14526,-0.13034 -0.14526,-0.28991 0,-0.15959 0.0728,-0.2904 0.14526,-0.2904 z m -153.204066,22.74588 17.40773,17.40773 v 4.97385 l -17.40773,17.4072 -17.40721,-17.4072 v -4.97385 l 4.97311,-4.97334 20.51606,5.59501 -13.05534,-13.05552 z m 30.46359,15.54274 4.97338,4.97332 -7.46046,7.46053 9.94727,9.9472 v 9.9472 l -14.92064,14.92107 -4.97391,-4.97388 12.43436,-12.43385 v -4.97385 l -7.46045,-7.46004 -14.92118,14.92055 -4.97311,-4.97335 z m 14.29888,29.21992 19.89455,19.89439 -4.9739,4.97335 -7.46019,-7.46003 -14.92092,14.92054 -4.97337,-4.97335 14.92065,-14.92104 -7.46072,-7.46054 z m 17.40773,27.3549 h 9.94728 l 9.94727,9.9472 0.62151,10.56888 -7.46046,7.46001 -15.54268,-15.54221 v 6.21668 l 12.43436,12.43438 -4.35214,4.35166 -15.54241,-15.54221 v -9.94719 z m 34.81493,9.9472 5.59568,5.59501 -14.92118,14.92107 4.9739,4.97332 11.81206,-3.10833 7.46072,7.46001 -16.78622,3.10885 -3.10833,16.78554 -6.83868,-6.83834 1.86478,-13.05605 -4.3516,-4.35168 -7.46046,7.46054 -5.59541,-5.59552 z"
       style="display:inline;opacity:1;fill:#005eef;stroke-width:1.03906;fill-opacity:1"
       id="path396" />
  </g>
</svg>
